<svg id="Layer_1" data-name="Layer 1" xmlns="http://www.w3.org/2000/svg" viewBox="0 0 160 30"><title>facebook_signin_button</title><g id="_Layer_120" data-name="#Layer 120"><rect width="30" height="30" fill="#3c5b9b"/><rect x="30" width="130" height="30" fill="#3c5b9b" opacity="0.95" style="isolation:isolate"/><path d="M12.3,25h4.2V15h2.8l.4-3.5H16.5V9.4c0-.8.5-1,.9-1h2.2V5H16.5a3.93,3.93,0,0,0-4.2,4.2v2.3h-2V15h2Z" transform="translate(0 0)" fill="#fff"/><path d="M38.3,18.2a3.83,3.83,0,0,0,1.9.5c1.1,0,1.7-.6,1.7-1.4s-.4-1.2-1.5-1.6c-1.3-.5-2.1-1.2-2.1-2.3,0-1.3,1-2.2,2.6-2.2a4,4,0,0,1,1.8.4l-.3.9a3.94,3.94,0,0,0-1.5-.4c-1.1,0-1.5.7-1.5,1.2,0,.8.5,1.1,1.6,1.6,1.4.5,2.1,1.2,2.1,2.4s-.9,2.3-2.8,2.3a4.34,4.34,0,0,1-2.1-.5Z" transform="translate(0 0)" fill="#fff"/><path d="M45.5,12.1c0,.4-.3.6-.7.6a.58.58,0,0,1-.6-.6.68.68,0,0,1,.7-.7A.67.67,0,0,1,45.5,12.1Zm-1.2,7.4V13.7h1.1v5.8Z" transform="translate(0 0)" fill="#fff"/><path d="M52.1,13.7v5a4,4,0,0,1-.8,2.7,3.32,3.32,0,0,1-2.1.7,3.56,3.56,0,0,1-1.9-.5l.3-.8a3.8,3.8,0,0,0,1.7.5,1.77,1.77,0,0,0,1.9-2v-.6h0a2.06,2.06,0,0,1-1.8,1,2.62,2.62,0,0,1-2.5-2.8c0-2,1.3-3.1,2.6-3.1a1.83,1.83,0,0,1,1.8,1h0v-.9h.8ZM51,16a.9.9,0,0,0-.1-.5,1.53,1.53,0,0,0-1.5-1.1c-1,0-1.7.9-1.7,2.2,0,1.1.6,2.1,1.7,2.1a1.69,1.69,0,0,0,1.5-1.1A1.27,1.27,0,0,0,51,17Z" transform="translate(0 0)" fill="#fff"/><path d="M53.7,15.3V13.7h.9l.1,1h0a2.1,2.1,0,0,1,1.9-1.1c.8,0,2.1.5,2.1,2.5v3.5H57.6V16.3c0-.9-.3-1.7-1.3-1.7a1.5,1.5,0,0,0-1.4,1.1,4.33,4.33,0,0,0-.1.5v3.5H53.7Z" transform="translate(0 0)" fill="#fff"/><path d="M64.1,12.1c0,.4-.3.6-.7.6a.58.58,0,0,1-.6-.6.68.68,0,0,1,.7-.7C63.9,11.4,64.1,11.7,64.1,12.1Zm-1.2,7.4V13.7H64v5.8Z" transform="translate(0 0)" fill="#fff"/><path d="M65.7,15.3V13.7h.9l.1,1h0a2.1,2.1,0,0,1,1.9-1.1c.8,0,2.1.5,2.1,2.5v3.5H69.6V16.3c0-.9-.3-1.7-1.3-1.7a1.5,1.5,0,0,0-1.4,1.1,4.33,4.33,0,0,0-.1.5v3.5H65.7Z" transform="translate(0 0)" fill="#fff"/><path d="M75.4,13.7l.8,3a11.63,11.63,0,0,1,.4,1.8h0a12.09,12.09,0,0,1,.5-1.8l.9-3h1l.9,2.9a18,18,0,0,1,.5,1.9h0c.1-.6.3-1.2.4-1.9l.8-2.9h1l-1.9,5.8h-1L79,16.7a10.55,10.55,0,0,1-.5-1.9h0a10.55,10.55,0,0,1-.5,1.9l-1,2.8H76l-1.8-5.8Z" transform="translate(0 0)" fill="#fff"/><path d="M85,12.1c0,.4-.3.6-.7.6a.58.58,0,0,1-.6-.6.68.68,0,0,1,.7-.7A.67.67,0,0,1,85,12.1Zm-1.2,7.4V13.7h1.1v5.8Z" transform="translate(0 0)" fill="#fff"/><path d="M87.9,12v1.7h1.5v.8H87.9v3.1c0,.7.2,1.1.8,1.1.3,0,.5,0,.6-.1v.8a2.22,2.22,0,0,1-.9.1,1.6,1.6,0,0,1-1.1-.4,2.08,2.08,0,0,1-.4-1.5V14.4H86v-.8h.9V12.2Z" transform="translate(0 0)" fill="#fff"/><path d="M90.6,11h1.1v3.6h0a1.39,1.39,0,0,1,.8-.7,2,2,0,0,1,1.1-.3c.8,0,2,.5,2,2.5v3.5H94.5V16.3c0-.9-.3-1.7-1.3-1.7a1.5,1.5,0,0,0-1.4,1.1.75.75,0,0,0-.1.5v3.5H90.6Z" transform="translate(0 0)" fill="#fff"/><path d="M99.8,11.4h4.4v.9h-3.3V15H104v.9h-3.1v3.7h-1V11.4Z" transform="translate(0 0)" fill="#fff"/><path d="M108.3,19.5l-.1-.7h0a2,2,0,0,1-1.8.9,1.65,1.65,0,0,1-1.8-1.7c0-1.4,1.2-2.2,3.5-2.2v-.1a1.14,1.14,0,0,0-1.3-1.3,3.71,3.71,0,0,0-1.5.4l-.2-.7a3.83,3.83,0,0,1,1.9-.5c1.8,0,2.2,1.2,2.2,2.4v2.2a6.15,6.15,0,0,0,.1,1.4h-1Zm-.2-3c-1.2,0-2.5.2-2.5,1.3a.94.94,0,0,0,1,1,1.44,1.44,0,0,0,1.4-1c0-.1.1-.2.1-.3Z" transform="translate(0 0)" fill="#fff"/><path d="M115,19.3a5.17,5.17,0,0,1-1.7.3,2.76,2.76,0,0,1-2.9-3,2.94,2.94,0,0,1,3.1-3.1,4.91,4.91,0,0,1,1.5.3l-.2.8a3,3,0,0,0-1.2-.3,2.07,2.07,0,0,0-2.1,2.2,2.06,2.06,0,0,0,2,2.2,3.55,3.55,0,0,0,1.3-.3Z" transform="translate(0 0)" fill="#fff"/><path d="M116.7,16.8a1.84,1.84,0,0,0,2,2,3.23,3.23,0,0,0,1.6-.3l.2.8a4.14,4.14,0,0,1-1.9.4,2.73,2.73,0,0,1-2.9-2.9c0-1.8,1-3.1,2.7-3.1a2.46,2.46,0,0,1,2.4,2.7v.5h-4.1Zm3.1-.8a1.51,1.51,0,0,0-1.5-1.7,1.73,1.73,0,0,0-1.6,1.7Z" transform="translate(0 0)" fill="#fff"/><path d="M122.1,19.5V11h1v3.6h0a2.27,2.27,0,0,1,2-1.1c1.4,0,2.5,1.2,2.4,3,0,2.1-1.3,3.1-2.6,3.1a2,2,0,0,1-1.9-1.1h0v1Zm1.1-2.3v.4a1.62,1.62,0,0,0,1.6,1.2c1.1,0,1.8-.9,1.8-2.2s-.6-2.2-1.7-2.2a1.69,1.69,0,0,0-1.6,1.3c0,.1-.1.3-.1.4Z" transform="translate(0 0)" fill="#fff"/><path d="M134.2,16.5a2.89,2.89,0,0,1-2.9,3.1,2.79,2.79,0,0,1-2.8-3,2.89,2.89,0,0,1,2.9-3.1A2.84,2.84,0,0,1,134.2,16.5Zm-4.6.1c0,1.3.7,2.2,1.8,2.2s1.8-.9,1.8-2.3c0-1-.5-2.2-1.7-2.2A2.06,2.06,0,0,0,129.6,16.6Z" transform="translate(0 0)" fill="#fff"/><path d="M140.8,16.5a2.89,2.89,0,0,1-2.9,3.1,2.79,2.79,0,0,1-2.8-3,2.89,2.89,0,0,1,2.9-3.1A2.84,2.84,0,0,1,140.8,16.5Zm-4.6.1c0,1.3.7,2.2,1.8,2.2s1.8-.9,1.8-2.3c0-1-.5-2.2-1.7-2.2A2.06,2.06,0,0,0,136.2,16.6Z" transform="translate(0 0)" fill="#fff"/><path d="M143.2,16.4h0a3,3,0,0,0,.5-.7l1.7-2h1.3l-2.2,2.4,2.6,3.4h-1.3l-2-2.8-.5.6v2.2h-1V11h1v5.4Z" transform="translate(0 0)" fill="#fff"/></g></svg>