<svg id="Layer_1" data-name="Layer 1" xmlns="http://www.w3.org/2000/svg" viewBox="0 0 160 30"><title>google_signin_button</title><g id="_Layer_117" data-name="#Layer 117"><rect width="30" height="30" fill="#f63d27"/><rect x="30" width="130" height="30" fill="#f63d27" opacity="0.9" style="isolation:isolate"/><path d="M20.3,18.4h.9a.43.43,0,0,0,.4-.4V15h3a.43.43,0,0,0,.4-.4v-.9a.43.43,0,0,0-.4-.4h-3v-3a.43.43,0,0,0-.4-.4h-.9a.43.43,0,0,0-.4.4v3h-3a.43.43,0,0,0-.4.4v.9a.43.43,0,0,0,.4.4h3v3A.37.37,0,0,0,20.3,18.4Z" transform="translate(0 0)" fill="#fff"/><path d="M8.4,23.7a9.86,9.86,0,0,0,2.4.3,7.8,7.8,0,0,0,2.2-.3,4.4,4.4,0,0,0,3.5-4,4.33,4.33,0,0,0-2-3.8,3.29,3.29,0,0,1-1.2-1.3c0-.4,0-.5.9-1.2a3.81,3.81,0,0,0,1.7-3.1A4,4,0,0,0,15,7.6h.4c.1,0,.2,0,.2-.1l1.2-.9a.76.76,0,0,0,.2-.5c-.2,0-.3-.1-.5-.1H11.2a5.66,5.66,0,0,0-1.8.3,4.64,4.64,0,0,0-3.3,4,4.33,4.33,0,0,0,4.3,4.3c0,.2-.1.4-.1.6a2.28,2.28,0,0,0,.3,1.1h-.1a5.78,5.78,0,0,0-5.3,2.9A5.07,5.07,0,0,0,5,20.5a3.08,3.08,0,0,0,.3,1.3A5.18,5.18,0,0,0,8.4,23.7Zm.5-13.4a3,3,0,0,1,.5-2.2,1.61,1.61,0,0,1,1.1-.5h0c1.2,0,2.3,1.3,2.5,2.9a3,3,0,0,1-.5,2.2,1.43,1.43,0,0,1-1.1.5h0C10.2,13.2,9.1,11.8,8.9,10.3Zm2.2,7.2h0a5,5,0,0,1,1.2.2.52.52,0,0,0,.4.2c.8.6,1.4.9,1.5,1.6,0,.2.1.3.1.5,0,1.6-1.2,2.3-3.4,2.3-1.7,0-3.1-1.1-3.1-2.4S9.3,17.5,11.1,17.5Z" transform="translate(0 0)" fill="#fff"/><path d="M38.3,18.2a3.83,3.83,0,0,0,1.9.5c1.1,0,1.7-.6,1.7-1.4s-.4-1.2-1.5-1.6c-1.3-.5-2.1-1.2-2.1-2.3,0-1.3,1-2.2,2.6-2.2a4,4,0,0,1,1.8.4l-.3.9a3.94,3.94,0,0,0-1.5-.4c-1.1,0-1.5.7-1.5,1.2,0,.8.5,1.1,1.6,1.6,1.4.5,2.1,1.2,2.1,2.4s-.9,2.3-2.8,2.3a4.34,4.34,0,0,1-2.1-.5Z" transform="translate(0 0)" fill="#fff"/><path d="M45.5,12.1c0,.4-.3.6-.7.6a.58.58,0,0,1-.6-.6.68.68,0,0,1,.7-.7A.67.67,0,0,1,45.5,12.1Zm-1.2,7.4V13.7h1.1v5.8Z" transform="translate(0 0)" fill="#fff"/><path d="M52.1,13.7v5a4,4,0,0,1-.8,2.7,3.32,3.32,0,0,1-2.1.7,3.56,3.56,0,0,1-1.9-.5l.3-.8a3.8,3.8,0,0,0,1.7.5,1.77,1.77,0,0,0,1.9-2v-.6h0a2.06,2.06,0,0,1-1.8,1,2.62,2.62,0,0,1-2.5-2.8c0-2,1.3-3.1,2.6-3.1a1.83,1.83,0,0,1,1.8,1h0v-.9h.8ZM51,16a.9.9,0,0,0-.1-.5,1.53,1.53,0,0,0-1.5-1.1c-1,0-1.7.9-1.7,2.2,0,1.1.6,2.1,1.7,2.1a1.69,1.69,0,0,0,1.5-1.1A1.27,1.27,0,0,0,51,17Z" transform="translate(0 0)" fill="#fff"/><path d="M53.7,15.3V13.7h.9l.1,1h0a2.1,2.1,0,0,1,1.9-1.1c.8,0,2.1.5,2.1,2.5v3.5H57.6V16.3c0-.9-.3-1.7-1.3-1.7a1.5,1.5,0,0,0-1.4,1.1,4.33,4.33,0,0,0-.1.5v3.5H53.7Z" transform="translate(0 0)" fill="#fff"/><path d="M64.1,12.1c0,.4-.3.6-.7.6a.58.58,0,0,1-.6-.6.68.68,0,0,1,.7-.7C63.9,11.4,64.1,11.7,64.1,12.1Zm-1.2,7.4V13.7H64v5.8Z" transform="translate(0 0)" fill="#fff"/><path d="M65.7,15.3V13.7h.9l.1,1h0a2.1,2.1,0,0,1,1.9-1.1c.8,0,2.1.5,2.1,2.5v3.5H69.6V16.3c0-.9-.3-1.7-1.3-1.7a1.5,1.5,0,0,0-1.4,1.1,4.33,4.33,0,0,0-.1.5v3.5H65.7Z" transform="translate(0 0)" fill="#fff"/><path d="M75.4,13.7l.8,3a11.63,11.63,0,0,1,.4,1.8h0a12.09,12.09,0,0,1,.5-1.8l.9-3h1l.9,2.9a18,18,0,0,1,.5,1.9h0c.1-.6.3-1.2.4-1.9l.8-2.9h1l-1.9,5.8h-1L79,16.7a10.55,10.55,0,0,1-.5-1.9h0a10.55,10.55,0,0,1-.5,1.9l-1,2.8H76l-1.8-5.8Z" transform="translate(0 0)" fill="#fff"/><path d="M85,12.1c0,.4-.3.6-.7.6a.58.58,0,0,1-.6-.6.68.68,0,0,1,.7-.7A.67.67,0,0,1,85,12.1Zm-1.2,7.4V13.7h1.1v5.8Z" transform="translate(0 0)" fill="#fff"/><path d="M87.9,12v1.7h1.5v.8H87.9v3.1c0,.7.2,1.1.8,1.1.3,0,.5,0,.6-.1v.8a2.22,2.22,0,0,1-.9.1,1.6,1.6,0,0,1-1.1-.4,2.08,2.08,0,0,1-.4-1.5V14.4H86v-.8h.9V12.2Z" transform="translate(0 0)" fill="#fff"/><path d="M90.6,11h1.1v3.6h0a1.39,1.39,0,0,1,.8-.7,2,2,0,0,1,1.1-.3c.8,0,2,.5,2,2.5v3.5H94.5V16.3c0-.9-.3-1.7-1.3-1.7a1.5,1.5,0,0,0-1.4,1.1.75.75,0,0,0-.1.5v3.5H90.6Z" transform="translate(0 0)" fill="#fff"/><path d="M106,19.1a7.17,7.17,0,0,1-2.5.4,4,4,0,0,1-3-1.1,4.25,4.25,0,0,1-1.1-3,4.1,4.1,0,0,1,4.4-4.2,4.3,4.3,0,0,1,2,.4l-.3.9a4.18,4.18,0,0,0-1.8-.3,3,3,0,0,0-3.3,3.3c0,2.1,1.2,3.3,3.1,3.3a3.71,3.71,0,0,0,1.4-.2V16.2h-1.6v-.8H106Z" transform="translate(0 0)" fill="#fff"/><path d="M112.8,16.5a2.89,2.89,0,0,1-2.9,3.1,2.79,2.79,0,0,1-2.8-3,2.89,2.89,0,0,1,2.9-3.1A2.84,2.84,0,0,1,112.8,16.5Zm-4.6.1c0,1.3.7,2.2,1.8,2.2s1.8-.9,1.8-2.3c0-1-.5-2.2-1.7-2.2A2.06,2.06,0,0,0,108.2,16.6Z" transform="translate(0 0)" fill="#fff"/><path d="M119.4,16.5a2.89,2.89,0,0,1-2.9,3.1,2.79,2.79,0,0,1-2.8-3,2.89,2.89,0,0,1,2.9-3.1A2.84,2.84,0,0,1,119.4,16.5Zm-4.6.1c0,1.3.7,2.2,1.8,2.2s1.8-.9,1.8-2.3c0-1-.5-2.2-1.7-2.2C115.3,14.3,114.8,15.5,114.8,16.6Z" transform="translate(0 0)" fill="#fff"/><path d="M125.8,13.7v5a4,4,0,0,1-.8,2.7,3.32,3.32,0,0,1-2.1.7,3.56,3.56,0,0,1-1.9-.5l.3-.8a3.8,3.8,0,0,0,1.7.5,1.77,1.77,0,0,0,1.9-2v-.6h0a2.06,2.06,0,0,1-1.8,1,2.62,2.62,0,0,1-2.5-2.8c0-2,1.3-3.1,2.6-3.1a1.83,1.83,0,0,1,1.8,1h0v-.9h.8ZM124.7,16a.9.9,0,0,0-.1-.5,1.53,1.53,0,0,0-1.5-1.1c-1,0-1.7.9-1.7,2.2,0,1.1.6,2.1,1.7,2.1a1.69,1.69,0,0,0,1.5-1.1,1.27,1.27,0,0,0,.1-.6Z" transform="translate(0 0)" fill="#fff"/><path d="M127.5,11h1.1v8.5h-1.1Z" transform="translate(0 0)" fill="#fff"/><path d="M130.9,16.8a1.84,1.84,0,0,0,2,2,3.23,3.23,0,0,0,1.6-.3l.2.8a4.14,4.14,0,0,1-1.9.4,2.73,2.73,0,0,1-2.9-2.9c0-1.7,1-3.1,2.7-3.1a2.46,2.46,0,0,1,2.4,2.7v.5h-4.1ZM134,16a1.51,1.51,0,0,0-1.5-1.7,1.73,1.73,0,0,0-1.6,1.7Z" transform="translate(0 0)" fill="#fff"/></g></svg>